<?xml version="1.0" encoding="UTF-8" standalone="no"?>
<!DOCTYPE svg PUBLIC "-//W3C//DTD SVG 1.1//EN" "http://www.w3.org/Graphics/SVG/1.1/DTD/svg11.dtd">
<svg xmlns="http://www.w3.org/2000/svg" version="1.1" width="800" height="600" viewBox="-15 -15 1230 922.5">
  <style>
    text {
        font-family: Roboto, sans-serif;
        font-size: 18px;
        font-weight: 300;
        line-height: 1.625;
        margin: 0;
    }
    text.big {
        font-size: 32px;
    }
    text.tempvalue {
        font-size: 65px;
    }
    text.sun-moon-title {
        font-size: 25px;
    }
    text.curwindspeed {
        font-size: 32px;
    }
    text.curwindgust {
        font-size: 32px;
    }
    text.graphtitle {
        font-size: 25px;
    }
  </style>
  <image href="./logo.png" width="330" height="80" x="0" y="3" />
  <text x="1200" y="43" dominant-baseline="middle" text-anchor="end">echte W&#246;llsdorfer Me&#223;werte f&#252;r D&#246;beln und Umgebung</text>
  <text x="0" y="100">Zuletzt aktualisiert am 03.10.2023 14:35:00</text>
  <g stroke="#D7D7D7" stroke-width="1">
    <line x1="0" y1="115" x2="1200" y2="115" />
    <line x1="400" y1="115" x2="400" y2="490" />
    <line x1="700" y1="115" x2="700" y2="490" />
    <line x1="0" y1="490" x2="1200" y2="490" />
    <line x1="0" y1="349" x2="700" y2="349" />
    <line x1="600" y1="490" x2="600" y2="832.5" /> 
  </g>
  <text x="415" y="137" text-anchor="start">Luftdruck</text>
  <text x="550" y="137" class="barometer" text-anchor="start">1010,4 mbar</text>
  <text x="415" y="166" text-anchor="start">Taupunkt</text>
  <text x="550" y="166" class="dewpoint" text-anchor="start">15,5 &#176;C</text>
  <text x="415" y="195" text-anchor="start">Feuchtkugelt.</text>
  <text x="550" y="195" class="outWetbulb" text-anchor="start">18,0 &#176;C</text>
  <text x="415" y="224" text-anchor="start">Luftfeuchte</text>
  <text x="550" y="224" class="outHumidity" text-anchor="start">52%</text>
  <text x="415" y="253" text-anchor="start">Regen</text>
  <text x="550" y="253" class="rainWithRainRate" text-anchor="start">0,0 mm</text>
  <text x="415" y="282" text-anchor="start">Sonne</text>
  <text x="550" y="282" class="radiation" text-anchor="start">227 W/m&#178;</text>
  <text x="415" y="311" text-anchor="start">UV-Index</text>
  <text x="550" y="311" class="UV" text-anchor="start">1,4</text>
  <image href="./dwd/bwk_bodendruck_na_ana.png" width="485" height="344.11" x="715" y="130" />
  <image id="wxicon" href="./images/partly-cloudy-day.png" width="128" height="100" x="15" y="130" />
  <text x="200" y="199" class="tempvalue" style="color:rgba(255,153,0,0.9)">26,1</text>
  <text x="330" y="169" class="big" style="color:rgba(255,153,0,0.9)">&#176;C</text>
  <text x="200" y="249">gef&#252;hlt: 26,3 &#176;C</text>
  <text x="240" y="299" text-anchor="middle">max</text>
  <text x="240" y="328" text-anchor="middle">26,8 &#176;C</text>
  <text x="330" y="299" text-anchor="middle">min</text>
  <text x="330" y="328" text-anchor="middle">7,8 &#176;C</text>
  <text x="415" y="379" class="sun-moon-title">Sonne &amp; Mond</text>
  <image href="./images/sunrise.png" width="20" height="10" x="415" y="399" />
  <text x="450" y="409">07:10:42</text>
  <image href="./images/sunset.png" width="20" height="10" x="415" y="429" />
  <text x="450" y="439">18:42:16</text>
  <text x="685" y="439" text-anchor="end">79% sichtbar</text>
  <text x="240" y="389" text-anchor="middle">Wind</text>
  <text x="240" y="429" text-anchor="middle" class="curwindspeed">18</text>
  <text x="330" y="389" text-anchor="middle">B&#246;en</text>
  <text x="330" y="429" text-anchor="middle" class="curwindgust">40</text>
  <line x1="285" y1="369" x2="285" y2="429" stroke="#D7D7D7" stroke-width="1" />
  <text x="285" y="458" text-anchor="middle">km/h</text>
  <circle cx="100" cy="419.5" r="44" stroke="#828487" stroke-width="6" fill="none" />
  <text x="100" y="414" class="curwinddir" text-anchor="middle">W</text>
  <text x="100" y="434" text-anchor="middle" class="curwinddeg">259&#176;</text>
  <g class="arrow" transform="rotate(258.9885412104983,100,419.5)">
    <path d="M100,419.5 m0,-32 l-6,-20 h12 z" fill="#c50a1d" />
  </g>
  <text x="300" y="525" class="graphtitle" text-anchor="middle">Au&#223;entemperatur</text>
  <path d="
    M15.0,552.7084970254798
    L16.979166666666668,548.9084072286453
    L18.958333333333332,546.7591761140418
    L20.9375,548.347738242227
    L22.916666666666664,542.4607138848355
    L24.895833333333336,540.0
    L26.875,543.706644965765
    L28.854166666666664,543.8623863508813
    L30.833333333333332,543.1459759793466
    L32.8125,542.8344932091142
    L34.79166666666667,543.8312380738578
    L36.770833333333336,545.1706139858572
    L38.75,546.9149174991583
    L40.72916666666667,548.8461106745988
    L42.70833333333333,551.8363452688293
    L44.6875,549.7494107082728
    L46.666666666666664,547.0395106072511
    L48.645833333333336,545.7312829722754
    L50.625,546.6657312829724
    L52.604166666666664,547.818217532832
    L54.583333333333336,546.35424851274
    L56.5625,546.0116174654846
    L58.54166666666667,546.136210573577
    L60.52083333333333,548.5034796273433
    L62.5,549.9051520933886
    L64.47916666666666,549.9051520933887
    L66.45833333333334,551.6494556066898
    L68.4375,553.0822763497587
    L70.41666666666666,553.393759119991
    L72.39583333333334,553.0822763497588
    L74.375,554.857728140083
    L76.35416666666667,556.5658996520372
    L78.33333333333333,558.2528903356158
    L80.3125,559.2571107868449
    L82.29166666666667,561.0562352677066
    L84.27083333333333,562.675945672915
    L86.25,564.2645078010999
    L88.22916666666666,566.5694803008196
    L90.20833333333333,571.5843529015601
    L92.1875,576.4509597036705
    L94.16666666666667,582.9223257380174
    L96.14583333333333,590.0552811763384
    L98.125,595.5062296554047
    L100.10416666666667,601.6424402289819
    L102.08333333333334,605.7851610730721
    L104.0625,611.0803681670221
    L106.04166666666666,618.4313615445058
    L108.02083333333333,625.1593893815242
    L110.0,635.5317656302616
    L111.97916666666667,646.4959591424403
    L113.95833333333333,653.8781007969468
    L115.9375,653.9715456280168
    L117.91666666666667,658.6749354585249
    L119.89583333333334,665.4029632955437
    L121.875,669.7637220787965
    L123.85416666666666,675.6818947132112
    L125.83333333333333,675.3392636659559
    L127.8125,674.8720395106074
    L129.79166666666669,682.783701874509
    L131.77083333333331,688.359243461668
    L133.75,689.698619373667
    L135.72916666666669,692.3773711976652
    L137.70833333333334,698.3578403861264
    L139.6875,697.9529127848242
    L141.66666666666666,695.7413851161746
    L143.64583333333334,698.5135817712426
    L145.625,709.3967897631608
    L147.60416666666666,710.7860029183973
    L149.58333333333334,710.7548546413739
    L151.5625,712.7171960938376
    L153.54166666666666,714.2434616679764
    L155.52083333333334,716.5172858906722
    L157.5,717.7009204175552
    L159.47916666666666,720.2862274104838
    L161.45833333333331,720.460657761814
    L163.4375,720.2550791334606
    L165.41666666666666,717.7943652486249
    L167.39583333333334,718.6976652822988
    L169.375,718.2615894039734
    L171.35416666666669,721.5633067684363
    L173.33333333333334,721.5633067684363
    L175.3125,722.435458525087
    L177.29166666666666,726.3601414300146
    L179.27083333333331,726.0486586597823
    L181.25,723.61909305197
    L183.22916666666666,723.0584240655518
    L185.20833333333334,726.7339207542936
    L187.1875,729.724155348524
    L189.16666666666669,728.7585587608036
    L191.14583333333334,731.6242002469413
    L193.125,732.8078347738241
    L195.10416666666666,733.8980244696376
    L197.08333333333331,733.1816140981031
    L199.0625,727.2945897407118
    L201.04166666666666,726.1732517678752
    L203.02083333333334,726.1732517678753
    L205.0,730.2848243349424
    L206.97916666666669,734.9882141654507
    L208.95833333333334,735.5488831518688
    L210.9375,738.7883039622855
    L212.91666666666666,740.6260523066563
    L214.89583333333331,739.6293074419126
    L216.875,744.6130317656305
    L218.85416666666666,744.9868110899091
    L220.83333333333334,742.7752834212592
    L222.8125,741.7785385565159
    L224.79166666666669,746.5442249410708
    L226.77083333333334,748.9737905488834
    L228.75,748.5065663935347
    L230.72916666666666,741.6850937254462
    L232.70833333333331,743.0244696374451
    L234.6875,746.3573352789313
    L236.66666666666666,750.0639802446963
    L238.64583333333334,752.9296217308342
    L240.625,755.047704568414
    L242.60416666666669,751.9640251431138
    L244.58333333333334,750.3131664608823
    L246.5625,754.3312941968795
    L248.54166666666666,754.1755528117633
    L250.52083333333331,748.8803457178134
    L252.5,743.8654731170727
    L254.47916666666666,744.2392524413514
    L256.45833333333337,739.4187450892356
    L258.4375,737.5735211583793
    L260.4166666666667,740.0653833202382
    L262.39583333333337,744.4261421034909
    L264.375,741.1244247390279
    L266.35416666666663,742.214614434841
    L268.3333333333333,744.052362779212
    L270.3125,743.0244696374452
    L272.2916666666667,736.1718486923336
    L274.2708333333333,730.1913795038726
    L276.25,722.6534964642495
    L278.2291666666667,716.6730272757886
    L280.2083333333333,707.6400269390504
    L282.1875,700.41362666966
    L284.1666666666667,707.453137276911
    L286.1458333333333,714.6795375463015
    L288.125,713.9942754517903
    L290.1041666666667,717.9812549107644
    L292.0833333333333,723.0272757885284
    L294.0625,729.5210685823326
    L296.0416666666667,735.2685486586597
    L298.0208333333333,740.4391626445167
    L300.0,743.117914468515
    L301.9791666666667,743.2425075766077
    L303.9583333333333,742.8998765293524
    L305.9375,746.045852508699
    L307.91666666666663,744.5195869345606
    L309.89583333333337,742.3392075429341
    L311.875,753.864070041531
    L313.8541666666667,760.7789875406893
    L315.8333333333333,762.6478841620832
    L317.8125,764.6725221685937
    L319.7916666666667,769.9677292625436
    L321.7708333333333,772.4907397014255
    L323.75,765.7004153103602
    L325.72916666666663,767.9742395330564
    L327.70833333333337,773.3317431810528
    L329.6875,772.5841845324952
    L331.6666666666667,769.0644292288697
    L333.6458333333333,772.6776293635648
    L335.625,771.0579189583568
    L337.6041666666667,774.8580087551913
    L339.5833333333333,780.122067572118
    L341.5625,778.0351330115615
    L343.54166666666663,782.6762262880235
    L345.52083333333337,782.2090021326749
    L347.5,780.1843641261646
    L349.4791666666667,776.2285329442136
    L351.4583333333333,781.5237400381636
    L353.4375,782.0221124705355
    L355.4166666666667,779.1564709843977
    L357.3958333333333,772.303850039286
    L359.375,772.3661465933326
    L361.35416666666663,779.1253227073746
    L363.33333333333337,777.4121674710966
    L365.3125,782.3335952407677
    L367.2916666666667,783.1123021663487
    L369.2708333333333,785.1057918958358
    L371.25,789.5599955101584
    L373.2291666666667,791.6157817936917
    L375.2083333333333,793.8584577393647
    L377.1875,793.3289370299697
    L379.16666666666663,790.8993714221573
    L381.14583333333337,797.3782130429902
    L383.125,795.3847233135033
    L385.1041666666667,793.8584577393648
    L387.0833333333333,792.7059714895049
    L389.0625,791.7092266247615
    L391.0416666666667,788.7501403075541
    L393.0208333333333,785.0746436188123
    L395.0,784.1713435851387
    L396.97916666666663,778.6269502750026
    L398.95833333333337,774.7645639241217
    L400.9375,764.9528566618026
    L402.9166666666667,747.5409698058143
    L404.8958333333333,737.417779773263
    L406.875,723.61909305197
    L408.8541666666667,722.6846447412729
    L410.8333333333333,724.3977999775508
    L412.8125,723.6190930519699
    L414.79166666666663,727.606072510944
    L416.77083333333337,728.2913346054551
    L418.75,736.7325176787517
    L420.7291666666667,736.7948142327983
    L422.7083333333333,734.6767313952183
    L424.6875,734.4586934560558
    L426.6666666666667,737.3243349421932
    L428.6458333333333,729.9421932876866
    L430.625,719.3206308227637
    L432.60416666666663,707.3285441688181
    L434.58333333333337,685.8935458525086
    L436.5625,673.3345605567404
    L438.5416666666667,665.9947805589853
    L440.5208333333333,655.5289594791784
    L442.5,652.4764283309014
    L444.4791666666667,651.8534627904364
    L446.4583333333333,649.3304523515546
    L448.4375,646.9008867437424
    L450.41666666666663,643.5057245482099
    L452.39583333333337,642.8827590077451
    L454.375,641.5433830957459
    L456.3541666666667,638.9269278257941
    L458.3333333333333,635.7809518464475
    L460.3125,631.7005275564037
    L462.2916666666667,627.6823998204063
    L464.2708333333333,623.1658996520371
    L466.25,616.369017728967
    L468.22916666666663,612.5754854641374
    L470.20833333333337,610.2331350319901
    L472.1875,609.9590301941856
    L474.1666666666667,606.2523852284207
    L476.1458333333333,599.5866539454485
    L478.125,592.4848467841509
    L480.1041666666667,583.3272533393197
    L482.0833333333333,572.6745425973734
    L484.0625,572.1450218879784
    L486.04166666666663,573.827028847233
    L488.02083333333337,570.774497698956
    L490.0,567.3481872264002
    L491.9791666666667,566.5071837467731
    L493.9583333333333,564.3579526321697
    L495.9375,562.675945672915
    L497.9166666666667,564.5759905713322
    L499.8958333333333,562.4267594567291
    L501.875,559.6545628016611
    L503.85416666666663,557.2249971938489
    L505.83333333333337,553.5806487821307
    L507.8125,556.5397350993378
    L509.7916666666667,559.0004489841733
    L511.7708333333333,561.9595353013808
    L513.75,563.579245706589
    L515.7291666666667,565.3858457739365
    L517.7083333333333,565.9153664833315
    L519.6875,563.1743181052867
    L521.6666666666666,558.3463351666853
    L523.6458333333334,553.7675384442698
    L525.625,547.8643169828262
    L527.6041666666666,546.1897856100572
    L529.5833333333334,548.1297003030642
    L531.5625,548.067403749018
    L533.5416666666666,553.798686721293
    L535.5208333333334,559.5922662476148
    L537.5,561.3054214838926
    L539.4791666666666,558.4397799977551
    L541.4583333333334,557.3495903019417
    L543.4375,559.1561903692896
    L545.4166666666666,558.034852396453
    L547.3958333333334,559.6857110786847
    L549.375,560.7447524974746
    L551.3541666666666,560.4021214502189
    L553.3333333333334,561.4923111460321
    L555.3125,562.5825008418454
    L557.2916666666666,564.2333595240767
    L559.2708333333334,555.3561005724548
    L561.25,549.4067796610168
    L563.2291666666666,550.465821079807
    L565.2083333333334,548.2231451341343
    L567.1875,546.4888090694806
    L569.1666666666666,548.3165899652038
    L571.1458333333334,551.7429004377594
    L573.125,552.1789763160848
    L575.1041666666666,552.3970142552478
    L577.0833333333334,553.1134246267819
    L579.0625,553.8298349983162
    L581.0416666666666,553.8921315523625
    L583.0208333333334,553.6740936132003
  " stroke="#7cb5ec" stroke-width="5" fill="none" />
  <path d="
    M15.0,709.2908856212817
    L16.979166666666668,709.041699405096
    L18.958333333333332,709.6023683915142
    L20.9375,713.963127174767
    L22.916666666666664,708.0761028173756
    L24.895833333333336,712.1876753844427
    L26.875,713.4959030194186
    L28.854166666666664,714.08772028286
    L30.833333333333332,713.5581995734651
    L32.8125,717.2336962622065
    L34.79166666666667,714.336906499046
    L36.770833333333336,713.4647547423953
    L38.75,717.4828824783925
    L40.72916666666667,718.2304411269504
    L42.70833333333333,719.6321135929958
    L44.6875,721.0337860590412
    L46.666666666666664,719.4452239308566
    L48.645833333333336,718.9779997755081
    L50.625,719.8190032551354
    L52.604166666666664,718.7911101133685
    L54.583333333333336,716.6107307217419
    L56.5625,714.6483892692784
    L58.54166666666667,719.0402963295542
    L60.52083333333333,719.5386687619261
    L62.5,719.0714446065776
    L64.47916666666666,717.8878100796946
    L66.45833333333334,719.2271859916939
    L68.4375,718.3861825120666
    L70.41666666666666,716.0189134583006
    L72.39583333333334,717.0156583230441
    L74.375,718.1058480188574
    L76.35416666666667,719.2645639241216
    L78.33333333333333,720.8468963969019
    L80.3125,718.8459310809295
    L82.29166666666667,716.7353238298349
    L84.27083333333333,714.5860927152319
    L86.25,714.6795375463015
    L88.22916666666666,713.9008306207206
    L90.20833333333333,711.1909305196991
    L92.1875,710.5629812549109
    L94.16666666666667,709.1351442361656
    L96.14583333333333,711.408968458862
    L98.125,718.1369962958806
    L100.10416666666667,716.6730272757885
    L102.08333333333334,715.0844651476036
    L104.0625,713.558199573465
    L106.04166666666666,715.4582444718824
    L108.02083333333333,718.9468514984848
    L110.0,723.8682792681557
    L111.97916666666667,730.7831967673139
    L113.95833333333333,738.0407453137277
    L115.9375,732.6832416657313
    L117.91666666666667,734.8636210573577
    L119.89583333333334,737.29318666517
    L121.875,742.6506903131665
    L123.85416666666666,742.8375799753057
    L125.83333333333333,743.9277696711192
    L127.8125,745.3917386912111
    L129.79166666666669,749.119695635992
    L131.77083333333331,748.3196767313952
    L133.75,747.0114490964193
    L135.72916666666669,751.3099113256258
    L137.70833333333334,755.2968907845998
    L139.6875,752.11976652823
    L141.66666666666666,746.2638904478619
    L143.64583333333334,752.3378044673924
    L145.625,767.855876080368
    L147.60416666666666,757.6330115613424
    L149.58333333333334,756.0444494331575
    L151.5625,758.1002357166909
    L153.54166666666666,761.4642496352004
    L155.52083333333334,759.2838702435739
    L157.5,763.2397014255247
    L159.47916666666666,762.9593669323156
    L161.45833333333331,760.6195083623302
    L163.4375,759.1904254125043
    L165.41666666666666,758.629756426086
    L167.39583333333334,758.5986081490628
    L169.375,756.0133011561342
    L171.35416666666669,761.1839151419912
    L173.33333333333334,759.4707599057132
    L175.3125,759.6887978448759
    L177.29166666666666,764.454484229431
    L179.27083333333331,763.6134807498036
    L181.25,759.1904254125042
    L183.22916666666666,758.2559771018073
    L185.20833333333334,765.7004153103602
    L187.1875,770.6529913570546
    L189.16666666666669,767.1332360534292
    L191.14583333333334,768.8775395667303
    L193.125,770.2480637557526
    L195.10416666666666,769.5316533842183
    L197.08333333333331,770.684139634078
    L199.0625,765.0774497698956
    L201.04166666666666,764.1741497362218
    L203.02083333333334,762.3986979458973
    L205.0,767.1955326074758
    L206.97916666666669,770.9021775732406
    L208.95833333333334,770.1857672017061
    L210.9375,773.7989673364013
    L212.91666666666666,774.4530811538893
    L214.89583333333331,773.0202604108206
    L216.875,778.8449882141655
    L218.85416666666666,775.5432708497026
    L220.83333333333334,772.7710741946345
    L222.8125,771.9923672690537
    L224.79166666666669,777.2564260859805
    L226.77083333333334,778.9695813222584
    L228.75,776.913795038725
    L230.72916666666666,769.1267257829161
    L232.70833333333331,772.6776293635648
    L234.6875,775.8859018969581
    L236.66666666666666,779.187619261421
    L238.64583333333334,781.58603659221
    L240.625,783.4860814906274
    L242.60416666666669,778.9695813222584
    L244.58333333333334,777.5990571332361
    L246.5625,783.2680435514649
    L248.54166666666666,782.084409024582
    L250.52083333333331,774.2038949377035
    L252.5,769.5939499382646
    L254.47916666666666,772.6464810865417
    L256.45833333333337,767.9754854641374
    L258.4375,769.5316533842182
    L260.4166666666667,774.017005275564
    L262.39583333333337,777.0072398697945
    L264.375,771.5251431137052
    L266.35416666666663,773.20715007296
    L268.3333333333333,776.5400157144461
    L270.3125,773.3005949040297
    L272.2916666666667,766.3856774048714
    L274.2708333333333,764.454484229431
    L276.25,761.4019530811538
    L278.2291666666667,758.9723874733414
    L280.2083333333333,753.8017734874846
    L282.1875,752.9919182848806
    L284.1666666666667,762.8347738242227
    L286.1458333333333,764.5167807834774
    L288.125,763.1774048714783
    L290.1041666666667,764.9528566618026
    L292.0833333333333,768.036536087103
    L294.0625,770.6965989448873
    L296.0416666666667,775.0137501403076
    L298.0208333333333,776.4154226063531
    L300.0,778.1597261196544
    L301.9791666666667,775.9793467280277
    L303.9583333333333,775.1071949713775
    L305.9375,779.1253227073746
    L307.91666666666663,775.5432708497026
    L309.89583333333337,774.7334156470985
    L311.875,790.8370748681109
    L313.8541666666667,791.3665955775059
    L315.8333333333333,791.6157817936918
    L317.8125,791.8026714558312
    L319.7916666666667,797.5339544281064
    L321.7708333333333,798.0946234145248
    L323.75,788.3763609832753
    L325.72916666666663,793.8584577393647
    L327.70833333333337,797.4093613200134
    L329.6875,795.3847233135033
    L331.6666666666667,791.2731507464363
    L333.6458333333333,795.2289819283869
    L335.625,792.7371197665284
    L337.6041666666667,798.0323268604782
    L339.5833333333333,802.4242339207543
    L341.5625,799.7143338197329
    L343.54166666666663,804.6669098664272
    L345.52083333333337,802.6921091031542
    L347.5,800.2127062521047
    L349.4791666666667,795.509316421596
    L351.4583333333333,802.4553821977776
    L353.4375,801.7078235492199
    L355.4166666666667,798.1257716915478
    L357.3958333333333,790.6190369289483
    L359.375,791.8649680098777
    L361.35416666666663,799.7143338197329
    L363.33333333333337,796.8486923335953
    L365.3125,803.0160511841957
    L367.2916666666667,802.8914580761027
    L369.2708333333333,805.1029857447525
    L371.25,809.806375575261
    L373.2291666666667,811.3326411493995
    L375.2083333333333,813.4818722640027
    L377.1875,811.7687170277246
    L379.16666666666663,809.4325962509821
    L381.14583333333337,817.5
    L383.125,813.5441688180491
    L385.1041666666667,811.7375687507016
    L387.0833333333333,810.2424514535862
    L389.0625,809.276854865866
    L391.0416666666667,806.2866202716355
    L393.0208333333333,802.3619373667079
    L395.0,801.6455269951734
    L396.97916666666663,795.3847233135033
    L398.95833333333337,792.705971489505
    L400.9375,782.2712986867214
    L402.9166666666667,766.323380850825
    L404.8958333333333,763.8315186889663
    L406.875,758.7232012571556
    L408.8541666666667,766.1364911886856
    L410.8333333333333,768.0365360871028
    L412.8125,768.6283533505444
    L414.79166666666663,770.4038051408688
    L416.77083333333337,771.8677741609608
    L418.75,777.3498709170502
    L420.7291666666667,774.4219328768661
    L422.7083333333333,773.20715007296
    L424.6875,771.8366258839377
    L426.6666666666667,774.017005275564
    L428.6458333333333,765.918453249523
    L430.625,762.3364013918509
    L432.60416666666663,754.3935907509261
    L434.58333333333337,746.3560893478505
    L436.5625,742.4687843753509
    L438.5416666666667,740.4080143674937
    L440.5208333333333,738.5391177460996
    L442.5,737.791559097542
    L444.4791666666667,737.0751487260076
    L446.4583333333333,736.3275900774498
    L448.4375,735.17510382759
    L450.41666666666663,733.4308003142888
    L452.39583333333337,733.5242451453587
    L454.375,733.1193175440566
    L456.3541666666667,730.6274553821978
    L458.3333333333333,729.3503760242452
    L460.3125,726.4535862610844
    L462.2916666666667,723.7436861600628
    L464.2708333333333,721.8124929846223
    L466.25,717.7615775886006
    L468.22916666666663,716.610730721742
    L470.20833333333337,716.2369513974633
    L472.1875,714.4614996071388
    L474.1666666666667,713.0909754181166
    L476.1458333333333,710.7237063643506
    L478.125,707.7646200471434
    L480.1041666666667,704.6809406218432
    L482.0833333333333,707.2973958917948
    L484.0625,710.2876304860255
    L486.04166666666663,713.3713099113255
    L488.02083333333337,713.8696823436974
    L490.0,713.3713099113257
    L491.9791666666667,713.1532719721631
    L493.9583333333333,711.3155236277921
    L495.9375,712.374565046582
    L497.9166666666667,714.741834100348
    L499.8958333333333,714.897575485464
    L501.875,713.1844202491862
    L503.85416666666663,713.5581995734651
    L505.83333333333337,711.1909305196992
    L507.8125,713.8385340666742
    L509.7916666666667,711.315523627792
    L511.7708333333333,712.9352340330005
    L513.75,713.7450892356043
    L515.7291666666667,715.3336513637896
    L517.7083333333333,713.7762375126277
    L519.6875,712.5614547087215
    L521.6666666666666,709.4777752834212
    L523.6458333333334,706.3940958581211
    L525.625,706.6158715905265
    L527.6041666666666,705.1805589852959
    L529.5833333333334,705.0858682231451
    L531.5625,704.1514199124481
    L533.5416666666666,707.2973958917947
    L535.5208333333334,706.9547648445392
    L537.5,707.7334717701201
    L539.4791666666666,705.7088337636098
    L541.4583333333334,705.6465372095635
    L543.4375,704.525199236727
    L545.4166666666666,702.4071163991468
    L547.3958333333334,701.6595577505893
    L549.375,699.6660680211023
    L551.3541666666666,698.8873610955214
    L553.3333333333334,698.046357615894
    L555.3125,696.9873161971041
    L557.2916666666666,698.0775058929173
    L559.2708333333334,689.3248400493883
    L561.25,691.9724435963633
    L563.2291666666666,690.9134021775733
    L565.2083333333334,692.0970367044561
    L567.1875,691.9936244247391
    L569.1666666666666,693.8724884947806
    L571.1458333333334,692.2527780895724
    L573.125,692.7200022449208
    L575.1041666666666,693.6233022785948
    L577.0833333333334,696.6758334268717
    L579.0625,696.9250196430576
    L581.0416666666666,696.0528678864071
    L583.0208333333334,696.8315748119879
  " stroke="#b2df8a" stroke-width="5" fill="none" />
  <text x="900" y="525" class="graphtitle" text-anchor="middle">Luftdruck</text>
  <path d="
    M615.0,540.0
    L616.9791666666666,541.2347925582126
    L618.9583333333334,543.1895836302701
    L620.9375,543.6425124753856
    L622.9166666666666,544.6489834003587
    L624.8958333333334,546.487557638264
    L626.875,546.4925655881407
    L628.8541666666666,550.1841529104124
    L630.8333333333334,550.4799858767882
    L632.8125,552.2607244799447
    L634.7916666666666,553.0718914897147
    L636.7708333333334,552.3349645537694
    L638.75,553.2407073090055
    L640.7291666666666,554.5945651092843
    L642.7083333333334,554.9727618208233
    L644.6875,556.6032704114901
    L646.6666666666666,558.7140611717043
    L648.6458333333334,559.9209175541291
    L650.625,560.0294927295404
    L652.6041666666666,562.083079993593
    L654.5833333333334,564.5358159707589
    L656.5625,566.5973996449504
    L658.5416666666666,568.0417797447274
    L660.5208333333334,567.9928995783899
    L662.5,568.5110814087428
    L664.4791666666666,568.6295820799164
    L666.4583333333334,568.942429222346
    L668.4375,570.4830625865734
    L670.4166666666666,570.637637149334
    L672.3958333333334,572.9716512739603
    L674.375,574.2279003293373
    L676.3541666666666,574.0364217152354
    L678.3333333333334,573.8381958906809
    L680.3125,572.1477362337984
    L682.2916666666666,569.8558050968315
    L684.2708333333334,569.4735577432139
    L686.25,570.4385678804738
    L688.2291666666666,569.9608496673621
    L690.2083333333334,568.2368965586612
    L692.1875,569.4189629349205
    L694.1666666666666,569.4205311224108
    L696.1458333333334,568.8948327801799
    L698.125,568.2470616523675
    L700.1041666666666,567.1446450241299
    L702.0833333333334,566.1243411705824
    L704.0625,566.9148673703817
    L706.0416666666666,565.514058870506
    L708.0208333333334,563.1707474970099
    L710.0,561.0124994742648
    L711.9791666666666,559.9852872985034
    L713.9583333333334,559.5494676770334
    L715.9375,559.6149626443653
    L717.9166666666666,559.3267426558658
    L719.8958333333334,558.6631974230927
    L721.875,557.8677233970848
    L723.8541666666666,556.0525728189996
    L725.8333333333334,557.4071961090606
    L727.8125,557.2780950147508
    L729.7916666666666,555.9552544176897
    L731.7708333333334,555.372525453875
    L733.75,555.8862402229242
    L735.7291666666666,555.8060727275979
    L737.7083333333334,556.5804011023386
    L739.6875,557.4310982844856
    L741.6666666666666,557.877649424937
    L743.6458333333334,559.3241913170593
    L745.625,558.7370337242987
    L747.6041666666666,559.5924257177517
    L749.5833333333334,559.6365994263488
    L751.5625,558.9875729597277
    L753.5416666666666,558.4428519118053
    L755.5208333333334,557.8653741235764
    L757.5,558.9926512001355
    L759.4791666666666,559.5537170087114
    L761.4583333333333,560.8385457888314
    L763.4375,560.9815696880071
    L765.4166666666666,561.3112407553672
    L767.3958333333334,562.6781454583506
    L769.375,562.3481669185484
    L771.3541666666667,562.010895036135
    L773.3333333333334,562.6830026930456
    L775.3125,564.0148133304722
    L777.2916666666666,565.6385970695087
    L779.2708333333333,565.7250559623543
    L781.25,566.2090898105772
    L783.2291666666666,567.2026923437329
    L785.2083333333334,567.8754448420095
    L787.1875,567.4249509044756
    L789.1666666666667,568.0844723741808
    L791.1458333333334,568.6407527224949
    L793.125,569.6086599574802
    L795.1041666666666,571.3022451818712
    L797.0833333333333,573.1501152566079
    L799.0625,575.0263213987494
    L801.0416666666666,575.7090835079666
    L803.0208333333334,576.4207422303056
    L805.0,576.9479076756702
    L806.9791666666667,577.3055167383857
    L808.9583333333334,577.2602950373989
    L810.9375,578.3515967918447
    L812.9166666666666,578.8244787991963
    L814.8958333333333,578.8964207949714
    L816.875,578.4171134972712
    L818.8541666666666,578.7162003523847
    L820.8333333333334,580.7918581793859
    L822.8125,581.8128709513358
    L824.7916666666667,580.6147994259852
    L826.7708333333334,581.1150739212862
    L828.75,582.4910259093
    L830.7291666666666,586.6509142416957
    L832.7083333333333,587.0409043166262
    L834.6875,586.4161215147295
    L836.6666666666666,587.1570934360572
    L838.6458333333334,587.1949108442603
    L840.625,588.3347644889961
    L842.6041666666667,588.1329048306801
    L844.5833333333334,589.1357814707537
    L846.5625,588.6813871456696
    L848.5416666666666,589.3378378994433
    L850.5208333333333,590.5795263636726
    L852.5,593.002421784437
    L854.4791666666666,595.9904284855575
    L856.4583333333334,601.2125419318417
    L858.4375,603.0893561799955
    L860.4166666666667,604.2936674367874
    L862.3958333333334,603.632916686341
    L864.375,605.6359630433328
    L866.3541666666666,606.2220750003721
    L868.3333333333333,606.4573463736506
    L870.3125,608.6298629245013
    L872.2916666666667,611.1692177064574
    L874.2708333333333,613.1783254357813
    L876.25,613.5995500967257
    L878.2291666666667,617.7764256392553
    L880.2083333333333,620.7441971897215
    L882.1875,623.9129601733432
    L884.1666666666667,623.6974527750137
    L886.1458333333333,623.2928619732743
    L888.125,623.9881461516433
    L890.1041666666667,626.0018379271238
    L892.0833333333333,628.2111866389994
    L894.0625,626.7330901371703
    L896.0416666666667,624.195177942614
    L898.0208333333333,625.7864092219663
    L900.0,627.871848699556
    L901.9791666666667,630.4230825192427
    L903.9583333333333,630.5540780179368
    L905.9375,631.2633185965713
    L907.9166666666666,635.2906940270395
    L909.8958333333334,635.3442213362264
    L911.875,635.846721449504
    L913.8541666666667,638.4307102881215
    L915.8333333333333,639.6871289624484
    L917.8125,641.7103269380489
    L919.7916666666667,642.2821988435603
    L921.7708333333333,645.928262648822
    L923.75,649.4615205070475
    L925.7291666666666,650.4966704258677
    L927.7083333333334,652.7987942635662
    L929.6875,654.7328000390834
    L931.6666666666667,656.2223367620303
    L933.6458333333333,657.6054289583082
    L935.625,658.9615740571304
    L937.6041666666667,661.540878138548
    L939.5833333333333,664.6848912400518
    L941.5625,668.1307530747575
    L943.5416666666666,669.1946587962077
    L945.5208333333334,672.2660935785111
    L947.5,673.3362588586739
    L949.4791666666667,675.7649948360795
    L951.4583333333333,676.0167404904678
    L953.4375,678.8663497275335
    L955.4166666666667,683.658038259801
    L957.3958333333333,687.0459355989378
    L959.375,690.3580810100955
    L961.3541666666666,690.7821393281667
    L963.3333333333334,692.4696485899314
    L965.3125,693.8072613000338
    L967.2916666666667,694.6363605271882
    L969.2708333333333,696.2663534353076
    L971.25,698.8205114617649
    L973.2291666666667,699.4116378470601
    L975.2083333333333,700.3689570184688
    L977.1875,702.7055199966072
    L979.1666666666666,704.5851140241115
    L981.1458333333334,705.2407648543902
    L983.125,705.8273324295299
    L985.1041666666667,706.2620970586286
    L987.0833333333333,706.4408849344978
    L989.0625,709.0475517804277
    L991.0416666666667,711.2855032859921
    L993.0208333333333,712.4468769573004
    L995.0,713.8518665987688
    L996.9791666666666,715.3387125860255
    L998.9583333333334,716.6841733911676
    L1000.9375,718.0279043411897
    L1002.9166666666667,721.5849081992772
    L1004.8958333333333,723.6669575678364
    L1006.875,726.5672335321004
    L1008.8541666666667,726.5489357311469
    L1010.8333333333333,725.2649601135424
    L1012.8125,726.3302233757079
    L1014.7916666666666,727.3152079875974
    L1016.7708333333334,727.766047412676
    L1018.75,727.2892926885105
    L1020.7291666666667,728.2685613970041
    L1022.7083333333333,730.0105363991934
    L1024.6875,729.7665414586336
    L1026.6666666666667,730.6007569123932
    L1028.6458333333333,732.0242555622543
    L1030.625,735.1951725673348
    L1032.6041666666665,738.5972459105178
    L1034.5833333333335,743.0019918091646
    L1036.5625,745.7855279985462
    L1038.5416666666667,746.6317156480029
    L1040.5208333333333,751.781322786257
    L1042.5,753.1697516605379
    L1044.4791666666667,753.338456388543
    L1046.4583333333333,756.8233850061208
    L1048.4375,758.5950010269612
    L1050.4166666666665,758.6471661465372
    L1052.3958333333335,759.9615213365682
    L1054.375,760.5879864360194
    L1056.3541666666667,760.9226445819495
    L1058.3333333333333,762.9131101616982
    L1060.3125,764.8382738585416
    L1062.2916666666667,764.698518869388
    L1064.2708333333333,762.2968188116655
    L1066.25,764.3693863865201
    L1068.2291666666665,767.6666260373803
    L1070.2083333333335,772.0902472719636
    L1072.1875,771.4729308915245
    L1074.1666666666667,773.9698124193267
    L1076.1458333333333,775.7740426810624
    L1078.125,778.2681337068079
    L1080.1041666666667,780.6093876079992
    L1082.0833333333333,783.0331698692761
    L1084.0625,783.4224670416445
    L1086.0416666666665,785.323428721352
    L1088.0208333333335,783.4931555983856
    L1090.0,785.4666981811511
    L1091.9791666666667,786.0961088787038
    L1093.9583333333333,786.0757252108253
    L1095.9375,787.8082211492635
    L1097.9166666666667,786.954441380869
    L1099.8958333333333,787.8819055486604
    L1101.875,788.1440885687886
    L1103.8541666666665,789.5437547156645
    L1105.8333333333335,789.9637393687588
    L1107.8125,789.2821635225874
    L1109.7916666666667,790.761967234379
    L1111.7708333333333,789.6052751474177
    L1113.75,789.4222106504039
    L1115.7291666666667,788.8181976904648
    L1117.7083333333333,791.4315970807169
    L1119.6875,792.0060640470408
    L1121.6666666666665,792.9847814538042
    L1123.6458333333335,793.5721732581067
    L1125.625,791.5329649844053
    L1127.6041666666665,792.8988719673665
    L1129.5833333333335,792.683362408216
    L1131.5625,792.5733649000528
    L1133.5416666666665,791.2373091777405
    L1135.5208333333335,790.7202973865467
    L1137.5,792.104798403418
    L1139.4791666666665,793.2484832896315
    L1141.4583333333335,795.1360484997041
    L1143.4375,800.1027455958869
    L1145.4166666666665,800.4144631107606
    L1147.3958333333335,802.1632759544859
    L1149.375,800.6749008157973
    L1151.3541666666665,800.7614170298696
    L1153.3333333333335,802.9424707412616
    L1155.3125,803.66187170845
    L1157.2916666666665,803.7115834634698
    L1159.2708333333335,805.6392204203225
    L1161.25,809.3758599856604
    L1163.2291666666665,810.3768514604285
    L1165.2083333333335,813.6058710076995
    L1167.1875,816.9373245997343
    L1169.1666666666665,816.9111121054538
    L1171.1458333333335,814.9822406762005
    L1173.125,816.0682321936248
    L1175.1041666666665,817.5
    L1177.0833333333335,815.427072425245
    L1179.0625,814.8156513523983
    L1181.0416666666665,811.6075090909135
    L1183.0208333333335,810.728778908407
  " stroke="#7cb5ec" stroke-width="5" fill="none" />
  <rect x="0" y="832.5" width="1200" height="60" fill="#D7D7D7" stroke="none" />
  <text x="15" y="875" class="big">https://www.woellsdorf-wetter.de</text>
</svg>
